SplineFontDB: 3.2
FontName: PhiSymbols
FullName: PhiSymbols
FamilyName: PhiSymbols
Weight: Book
Copyright: Copyright 2023 by Authors of Submission 96\nMerged and modified from Noto Sans Symbol 2, STIX 2 Math, DejaVu Sans Mono.
Version: 001.000
ItalicAngle: 0
UnderlinePosition: -175
UnderlineWidth: 90
Ascent: 1556
Descent: 492
InvalidEm: 0
sfntRevision: 0x00010000
LayerCount: 2
Layer: 0 1 "Back" 1
Layer: 1 1 "Fore" 0
XUID: [1021 890 1369118131 6063713]
StyleMap: 0x0040
FSType: 0
OS2Version: 1
OS2_WeightWidthSlopeOnly: 0
OS2_UseTypoMetrics: 0
CreationTime: 1682778433
ModificationTime: 1725099756
PfmFamily: 17
TTFWeight: 400
TTFWidth: 5
LineGap: 0
VLineGap: 0
Panose: 2 11 6 9 3 8 4 2 2 4
OS2TypoAscent: 1556
OS2TypoAOffset: 0
OS2TypoDescent: -492
OS2TypoDOffset: 0
OS2TypoLinegap: 410
OS2WinAscent: 1901
OS2WinAOffset: 0
OS2WinDescent: 483
OS2WinDOffset: 0
HheadAscent: 1901
HheadAOffset: 0
HheadDescent: -483
HheadDOffset: 0
OS2SubXSize: 1331
OS2SubYSize: 1433
OS2SubXOff: 0
OS2SubYOff: 286
OS2SupXSize: 1331
OS2SupYSize: 1433
OS2SupXOff: 0
OS2SupYOff: 983
OS2StrikeYSize: 102
OS2StrikeYPos: 530
OS2Vendor: 'PfEd'
OS2CodePages: 00000001.00000000
OS2UnicodeRanges: 80000000.0200a040.00000000.00000000
MarkAttachClasses: 1
DEI: 91125
ShortTable: cvt  2
  68
  1297
EndShort
ShortTable: maxp 16
  1
  0
  13
  90
  6
  0
  0
  2
  0
  1
  1
  0
  64
  46
  0
  0
EndShort
LangName: 1033 "" "" "" "FontForge 2.0 : PhiSymbols : 30-4-2023" "" "Version 001.000"
GaspTable: 1 65535 15 1
Encoding: UnicodeFull
UnicodeInterp: none
NameList: AGL For New Fonts
DisplaySize: -48
AntiAlias: 1
FitToEm: 0
WinInfo: 9614 38 14
BeginPrivate: 0
EndPrivate
BeginChars: 1114115 64

StartChar: .notdef
Encoding: 1114112 -1 0
Width: 748
GlyphClass: 1
Flags: W
LayerCount: 2
Fore
SplineSet
68 0 m 1,0,-1
 68 1365 l 1,1,-1
 612 1365 l 1,2,-1
 612 0 l 1,3,-1
 68 0 l 1,0,-1
136 68 m 1,4,-1
 544 68 l 1,5,-1
 544 1297 l 1,6,-1
 136 1297 l 1,7,-1
 136 68 l 1,4,-1
EndSplineSet
Validated: 1
EndChar

StartChar: uni2023
Encoding: 8227 8227 3
Width: 1129
VWidth: 1617
GlyphClass: 1
Flags: W
LayerCount: 2
Fore
SplineSet
429 528 m 1,0,-1
 429 854 l 1,1,-1
 720 692 l 1,2,-1
 429 528 l 1,0,-1
EndSplineSet
Validated: 1
EndChar

StartChar: uni25C9
Encoding: 9673 9673 4
Width: 1724
GlyphClass: 1
Flags: W
LayerCount: 2
Fore
SplineSet
862 -183 m 0,0,1
 706 -183 706 -183 576 -127 c 0,2,3
 444 -70 444 -70 341 33 c 0,4,5
 237 137 237 137 181 268 c 0,6,7
 124 401 124 401 124 555 c 0,8,9
 124 708 124 708 181 842 c 0,10,11
 239 977 239 977 341 1078 c 0,12,13
 446 1182 446 1182 576 1237 c 0,14,15
 707 1293 707 1293 862 1293 c 0,16,17
 1019 1293 1019 1293 1150 1237 c 0,18,19
 1280 1182 1280 1182 1385 1078 c 0,20,21
 1488 976 1488 976 1544 842 c 0,22,23
 1600 707 1600 707 1600 555 c 128,-1,24
 1600 403 1600 403 1544 268 c 0,25,26
 1490 138 1490 138 1385 33 c 0,27,28
 1281 -71 1281 -71 1150 -127 c 128,-1,29
 1019 -183 1019 -183 862 -183 c 0,0,1
862 -54 m 0,30,31
 988 -54 988 -54 1099 -6 c 128,-1,32
 1210 42 1210 42 1293 125 c 0,33,34
 1377 209 1377 209 1424 318 c 0,35,36
 1472 429 1472 429 1472 555 c 128,-1,37
 1472 681 1472 681 1424 792 c 0,38,39
 1377 901 1377 901 1293 985 c 128,-1,40
 1209 1069 1209 1069 1099 1117 c 0,41,42
 990 1165 990 1165 862 1165 c 256,43,44
 734 1165 734 1165 625 1117 c 256,45,46
 516 1069 516 1069 432 985 c 0,47,48
 349 902 349 902 301 793 c 0,49,50
 253 683 253 683 253 555 c 0,51,52
 253 429 253 429 301 318 c 0,53,54
 348 209 348 209 432 125 c 0,55,56
 515 42 515 42 625 -6 c 0,57,58
 734 -54 734 -54 862 -54 c 0,30,31
862 35 m 0,59,60
 757 35 757 35 660 75 c 0,61,62
 568 113 568 113 494 187 c 0,63,64
 421 260 421 260 382 354 c 0,65,66
 342 451 342 451 342 555 c 0,67,68
 342 661 342 661 382 758 c 0,69,70
 420 850 420 850 494 924 c 0,71,72
 566 996 566 996 660 1035 c 0,73,74
 759 1076 759 1076 862 1076 c 128,-1,75
 965 1076 965 1076 1066 1035 c 0,76,77
 1159 997 1159 997 1232 924 c 0,78,79
 1306 850 1306 850 1344 758 c 0,80,81
 1384 661 1384 661 1384 555 c 0,82,83
 1384 450 1384 450 1344 353 c 0,84,85
 1306 261 1306 261 1232 187 c 0,86,87
 1157 112 1157 112 1066 75 c 0,88,89
 968 35 968 35 862 35 c 0,59,60
EndSplineSet
Validated: 1
EndChar

StartChar: H18533
Encoding: 9679 9679 5
Width: 1724
GlyphClass: 1
Flags: W
LayerCount: 2
Fore
SplineSet
862 -183 m 0,0,1
 706 -183 706 -183 575 -127 c 128,-1,2
 444 -71 444 -71 340 33 c 0,3,4
 238 135 238 135 181 268 c 128,-1,5
 124 401 124 401 124 555 c 4,6,7
 124 710 124 710 181 843 c 0,8,9
 239 978 239 978 340 1078 c 0,10,11
 444 1181 444 1181 576 1237 c 0,12,13
 707 1293 707 1293 862 1293 c 0,14,15
 1019 1293 1019 1293 1150 1237 c 0,16,17
 1280 1182 1280 1182 1385 1078 c 0,18,19
 1489 976 1489 976 1544 843 c 0,20,21
 1600 708 1600 708 1600 555 c 0,22,23
 1600 403 1600 403 1544 268 c 0,24,25
 1490 138 1490 138 1385 33 c 0,26,27
 1281 -71 1281 -71 1150 -127 c 128,-1,28
 1019 -183 1019 -183 862 -183 c 0,0,1
EndSplineSet
Validated: 1
EndChar

StartChar: uni275F
Encoding: 10079 10079 6
Width: 1133
GlyphClass: 1
Flags: W
LayerCount: 2
Fore
SplineSet
291 -215 m 1,0,-1
 291 -182 l 1,1,2
 459 -182 459 -182 535 -127 c 128,-1,3
 611 -72 611 -72 611 27 c 1,4,5
 603 16 603 16 568 4 c 0,6,7
 528 -10 528 -10 486 -10 c 0,8,9
 431 -10 431 -10 386 18 c 0,10,11
 339 47 339 47 316 92 c 0,12,13
 291 140 291 140 291 195 c 0,14,15
 291 288 291 288 353 350 c 128,-1,16
 415 412 415 412 513 412 c 0,17,18
 573 412 573 412 627 381 c 0,19,20
 682 350 682 350 711 293 c 0,21,22
 742 233 742 233 742 150 c 0,23,24
 742 83 742 83 715 10 c 0,25,26
 693 -48 693 -48 646 -102 c 0,27,28
 606 -148 606 -148 545 -176 c 0,29,30
 463 -215 463 -215 291 -215 c 1,0,-1
EndSplineSet
Validated: 1
EndChar

StartChar: uni276C
Encoding: 10092 10092 7
Width: 1233
GlyphClass: 1
Flags: W
LayerCount: 2
Fore
SplineSet
609 -152 m 1,0,-1
 342 741 l 1,1,-1
 609 1634 l 1,2,-1
 887 1634 l 1,3,-1
 621 741 l 1,4,-1
 891 -152 l 1,5,-1
 609 -152 l 1,0,-1
EndSplineSet
Validated: 1
EndChar

StartChar: uni276D
Encoding: 10093 10093 8
Width: 1233
GlyphClass: 1
Flags: W
LayerCount: 2
Fore
SplineSet
342 -152 m 1,0,-1
 613 741 l 1,1,-1
 347 1634 l 1,2,-1
 625 1634 l 1,3,-1
 891 741 l 1,4,-1
 625 -152 l 1,5,-1
 342 -152 l 1,0,-1
EndSplineSet
Validated: 1
EndChar

StartChar: uni2774
Encoding: 10100 10100 9
Width: 1233
GlyphClass: 1
Flags: W
LayerCount: 2
Fore
SplineSet
672 -152 m 2,0,1
 585 -152 585 -152 536 -129 c 128,-1,2
 487 -106 487 -106 468 -51 c 0,3,4
 449 3 449 3 449 102 c 2,5,-1
 449 444 l 2,6,7
 449 579 449 579 424 649 c 0,8,9
 400 717 400 717 297 717 c 1,10,-1
 297 766 l 1,11,12
 370 778 370 778 401 802 c 0,13,14
 434 827 434 827 441 881 c 0,15,16
 449 940 449 940 449 1038 c 2,17,-1
 449 1380 l 2,18,19
 449 1481 449 1481 467 1535 c 128,-1,20
 485 1589 485 1589 535 1612 c 0,21,22
 583 1634 583 1634 672 1634 c 2,23,-1
 936 1634 l 1,24,-1
 936 1597 l 1,25,-1
 928 1597 l 2,26,27
 858 1597 858 1597 820 1568 c 0,28,29
 781 1538 781 1538 781 1460 c 2,30,-1
 781 1024 l 2,31,32
 781 907 781 907 761 847 c 0,33,34
 741 788 741 788 705 769 c 0,35,36
 665 748 665 748 617 741 c 1,37,38
 674 735 674 735 710 714 c 0,39,40
 744 694 744 694 763 635 c 0,41,42
 781 578 781 578 781 459 c 2,43,-1
 781 23 l 2,44,45
 781 -55 781 -55 818 -85 c 0,46,47
 856 -115 856 -115 928 -115 c 2,48,-1
 936 -115 l 1,49,-1
 936 -152 l 1,50,-1
 672 -152 l 2,0,1
EndSplineSet
Validated: 1
EndChar

StartChar: uni2775
Encoding: 10101 10101 10
Width: 1233
GlyphClass: 1
Flags: W
LayerCount: 2
Fore
SplineSet
297 -152 m 1,0,-1
 297 -115 l 1,1,-1
 306 -115 l 2,2,3
 378 -115 378 -115 415 -85 c 0,4,5
 453 -55 453 -55 453 23 c 2,6,-1
 453 459 l 2,7,8
 453 578 453 578 469 633 c 0,9,10
 486 691 486 691 523 712 c 0,11,12
 562 734 562 734 617 741 c 1,13,14
 566 748 566 748 527 770 c 0,15,16
 490 791 490 791 472 849 c 0,17,18
 453 911 453 911 453 1024 c 2,19,-1
 453 1460 l 2,20,21
 453 1538 453 1538 416 1568 c 0,22,23
 380 1597 380 1597 306 1597 c 2,24,-1
 297 1597 l 1,25,-1
 297 1634 l 1,26,-1
 562 1634 l 2,27,28
 648 1634 648 1634 696 1613 c 0,29,30
 742 1593 742 1593 764 1537 c 0,31,32
 785 1483 785 1483 785 1380 c 2,33,-1
 785 1038 l 2,34,35
 785 987 785 987 788 947 c 0,36,37
 791 902 791 902 795 879 c 0,38,39
 806 821 806 821 833 800 c 0,40,41
 862 778 862 778 936 766 c 1,42,-1
 936 717 l 1,43,44
 867 717 867 717 828 678 c 0,45,46
 785 635 785 635 785 444 c 2,47,-1
 785 102 l 2,48,49
 785 8 785 8 766 -51 c 0,50,51
 748 -106 748 -106 700 -129 c 0,52,53
 651 -152 651 -152 562 -152 c 2,54,-1
 297 -152 l 1,0,-1
EndSplineSet
Validated: 1
EndChar

StartChar: uni2A74
Encoding: 10868 10868 11
Width: 2466
GlyphClass: 1
Flags: W
LayerCount: 2
Fore
SplineSet
2197 670 m 1,0,-1
 1130 670 l 1,1,-1
 1130 809 l 1,2,-1
 2197 809 l 1,3,-1
 2197 670 l 1,0,-1
2197 252 m 1,4,-1
 1130 252 l 1,5,-1
 1130 389 l 1,6,-1
 2197 389 l 1,7,-1
 2197 252 l 1,4,-1
957 741 m 0,8,9
 957 686 957 686 920 647 c 128,-1,10
 883 608 883 608 824 608 c 0,11,12
 764 608 764 608 727.5 644 c 128,-1,13
 691 680 691 680 691 741 c 0,14,15
 691 799 691 799 731 836.5 c 128,-1,16
 771 874 771 874 824 874 c 128,-1,17
 877 874 877 874 917 836 c 128,-1,18
 957 798 957 798 957 741 c 0,8,9
536 741 m 0,19,20
 536 686 536 686 498.5 647 c 128,-1,21
 461 608 461 608 402 608 c 128,-1,22
 343 608 343 608 306 644 c 128,-1,23
 269 680 269 680 269 741 c 0,24,25
 269 799 269 799 309.5 836.5 c 128,-1,26
 350 874 350 874 402 874 c 0,27,28
 455 874 455 874 495.5 836 c 128,-1,29
 536 798 536 798 536 741 c 0,19,20
957 319 m 0,30,31
 957 266 957 266 917 226 c 128,-1,32
 877 186 877 186 822 186 c 0,33,34
 770 186 770 186 730.5 226 c 128,-1,35
 691 266 691 266 691 319 c 0,36,37
 691 380 691 380 729 416.5 c 128,-1,38
 767 453 767 453 822 453 c 0,39,40
 880 453 880 453 918.5 417 c 128,-1,41
 957 381 957 381 957 319 c 0,30,31
536 319 m 0,42,43
 536 266 536 266 495.5 226 c 128,-1,44
 455 186 455 186 400 186 c 0,45,46
 349 186 349 186 309 226.5 c 128,-1,47
 269 267 269 267 269 319 c 0,48,49
 269 380 269 380 307.5 416.5 c 128,-1,50
 346 453 346 453 400 453 c 0,51,52
 458 453 458 453 497 417 c 128,-1,53
 536 381 536 381 536 319 c 0,42,43
EndSplineSet
Validated: 1
EndChar

StartChar: u1F799
Encoding: 128921 128921 12
Width: 1233
GlyphClass: 1
Flags: W
LayerCount: 2
Fore
SplineSet
618 205 m 1,0,-1
 78 741 l 1,1,-1
 618 1280 l 1,2,-1
 1154 741 l 1,3,-1
 618 205 l 1,0,-1
EndSplineSet
Validated: 1
EndChar

StartChar: uni2A38
Encoding: 10808 10808 13
Width: 1725
VWidth: 1996
Flags: W
HStem: -184 130<696.934 1031.07 696.934 1068.1> 127 226<834.577 892.482> 489 132<439.685 1287.37 439.685 1287.37> 755 228<834.577 892.482> 1161 132<696.934 1031.07>
VStem: 125 132<387.455 722.545 387.455 758.617> 749 228<206.146 270.696 835.507 900.057> 1471 132<387.455 722.545>
LayerCount: 2
Fore
SplineSet
976 869.5 m 128,-1,1
 976 818 976 818 943 786.5 c 128,-1,2
 910 755 910 755 864 755 c 128,-1,3
 818 755 818 755 783.5 787.5 c 128,-1,4
 749 820 749 820 749 870 c 0,5,6
 749 917 749 917 781 950 c 128,-1,7
 813 983 813 983 864 983 c 128,-1,8
 915 983 915 983 945.5 952 c 128,-1,0
 976 921 976 921 976 869.5 c 128,-1,1
1287 489 m 1,9,-1
 440 489 l 1,10,-1
 440 621 l 1,11,-1
 1287 621 l 1,12,-1
 1287 489 l 1,9,-1
976 240 m 0,13,14
 976 190 976 190 943 158.5 c 128,-1,15
 910 127 910 127 864 127 c 128,-1,16
 818 127 818 127 783.5 159 c 128,-1,17
 749 191 749 191 749 240 c 0,18,19
 749 288 749 288 781 320 c 128,-1,20
 813 352 813 352 864 352 c 128,-1,21
 915 352 915 352 945.5 322 c 128,-1,22
 976 292 976 292 976 240 c 0,13,14
1603 555 m 4,23,24
 1603 405 1603 405 1544.5 267.5 c 132,-1,25
 1486 130 1486 130 1387 31.5 c 132,-1,26
 1288 -67 1288 -67 1151 -125.5 c 132,-1,27
 1014 -184 1014 -184 864 -184 c 4,28,29
 743 -184 743 -184 630.5 -147 c 132,-1,30
 518 -110 518 -110 427 -41.5 c 132,-1,31
 336 27 336 27 268 118 c 132,-1,32
 200 209 200 209 162.5 321.5 c 132,-1,33
 125 434 125 434 125 555 c 4,34,35
 125 755 125 755 224 925.5 c 132,-1,36
 323 1096 323 1096 493.5 1195 c 132,-1,37
 664 1294 664 1294 864 1294 c 4,38,39
 985 1294 985 1294 1097.5 1256.5 c 132,-1,40
 1210 1219 1210 1219 1301 1150.5 c 132,-1,41
 1392 1082 1392 1082 1460 991.5 c 132,-1,42
 1528 901 1528 901 1565.5 788.5 c 132,-1,43
 1603 676 1603 676 1603 555 c 4,23,24
1471 554.5 m 128,-1,45
 1471 678 1471 678 1423 790 c 128,-1,46
 1375 902 1375 902 1293 983.5 c 128,-1,47
 1211 1065 1211 1065 1099 1113 c 128,-1,48
 987 1161 987 1161 864 1161 c 128,-1,49
 741 1161 741 1161 629 1113 c 128,-1,50
 517 1065 517 1065 435 983.5 c 128,-1,51
 353 902 353 902 305 790 c 128,-1,52
 257 678 257 678 257 554.5 c 128,-1,53
 257 431 257 431 305 318.5 c 128,-1,54
 353 206 353 206 435 124.5 c 128,-1,55
 517 43 517 43 629 -5.5 c 128,-1,56
 741 -54 741 -54 864 -54 c 128,-1,57
 987 -54 987 -54 1099 -5.5 c 128,-1,58
 1211 43 1211 43 1293 124.5 c 128,-1,59
 1375 206 1375 206 1423 318.5 c 128,-1,44
 1471 431 1471 431 1471 554.5 c 128,-1,45
EndSplineSet
Validated: 1
EndChar

StartChar: uni3011
Encoding: 12305 12305 14
Width: 2466
Flags: W
LayerCount: 2
Fore
SplineSet
1117 -88 m 1,0,-1
 549 -88 l 1,1,2
 949 272 949 272 949 768 c 0,3,4
 949 1312 949 1312 549 1632 c 1,5,-1
 1117 1632 l 1,6,-1
 1117 -88 l 1,0,-1
EndSplineSet
Validated: 1
EndChar

StartChar: uni3010
Encoding: 12304 12304 15
Width: 2466
Flags: W
LayerCount: 2
Fore
SplineSet
1917 1632 m 1,0,1
 1517 1312 1517 1312 1517 768 c 0,2,3
 1517 264 1517 264 1917 -88 c 1,4,-1
 1349 -88 l 1,5,-1
 1349 1632 l 1,6,-1
 1917 1632 l 1,0,1
EndSplineSet
Validated: 1
EndChar

StartChar: uni25D2
Encoding: 9682 9682 16
Width: 1724
VWidth: 0
Flags: W
LayerCount: 2
Fore
SplineSet
862 -177 m 0,0,1
 709 -177 709 -177 575.5 -120 c 128,-1,2
 442 -63 442 -63 340 39 c 128,-1,3
 238 141 238 141 181 274.5 c 128,-1,4
 124 408 124 408 124 561 c 0,5,6
 124 716 124 716 181 849 c 128,-1,7
 238 982 238 982 340 1083.5 c 128,-1,8
 442 1185 442 1185 576 1242 c 128,-1,9
 710 1299 710 1299 862 1299 c 0,10,11
 1017 1299 1017 1299 1150 1242 c 128,-1,12
 1283 1185 1283 1185 1385 1083.5 c 128,-1,13
 1487 982 1487 982 1543.5 849 c 128,-1,14
 1600 716 1600 716 1600 561 c 4,15,16
 1600 408 1600 408 1543.5 274.5 c 128,-1,17
 1487 141 1487 141 1385 39 c 128,-1,18
 1283 -63 1283 -63 1150 -120 c 128,-1,19
 1017 -177 1017 -177 862 -177 c 0,0,1
202 561 m 1,20,-1
 1522 561 l 1,21,22
 1522 699 1522 699 1471 818.5 c 128,-1,23
 1420 938 1420 938 1329.5 1028.5 c 128,-1,24
 1239 1119 1239 1119 1119.5 1170 c 128,-1,25
 1000 1221 1000 1221 862 1221 c 256,26,27
 724 1221 724 1221 605 1170 c 128,-1,28
 486 1119 486 1119 395.5 1028.5 c 128,-1,29
 305 938 305 938 253.5 818.5 c 128,-1,30
 202 699 202 699 202 561 c 1,20,-1
EndSplineSet
Validated: 1
EndChar

StartChar: uni2731
Encoding: 10033 10033 17
Width: 2342
VWidth: 2148
Flags: W
LayerCount: 2
Fore
SplineSet
1227 553 m 1,0,-1
 1295 -217 l 1,1,2
 1298 -238 1298 -238 1298 -258 c 0,3,4
 1298 -291 1298 -291 1289 -318 c 0,5,6
 1262 -399 1262 -399 1166 -399 c 0,7,8
 1115 -399 1115 -399 1079.5 -364 c 128,-1,9
 1044 -329 1044 -329 1044 -289 c 0,10,11
 1044 -278 1044 -278 1046 -267 c 1,12,-1
 1046 -241 l 1,13,-1
 1114 560 l 1,14,-1
 501 105 l 2,15,16
 442 61 442 61 396.5 61 c 128,-1,17
 351 61 351 61 310.5 101.5 c 128,-1,18
 270 142 270 142 270 196 c 128,-1,19
 270 250 270 250 298.5 277.5 c 128,-1,20
 327 305 327 305 373 325 c 1,21,-1
 1062 657 l 1,22,-1
 373 985 l 2,23,24
 344 998 344 998 325.5 1009 c 128,-1,25
 307 1020 307 1020 288.5 1047.5 c 128,-1,26
 270 1075 270 1075 270 1121 c 128,-1,27
 270 1167 270 1167 311.5 1208 c 128,-1,28
 353 1249 353 1249 402 1249 c 0,29,30
 426 1249 426 1249 448 1234.5 c 128,-1,31
 470 1220 470 1220 501 1198 c 2,32,-1
 1114 749 l 1,33,-1
 1046 1526 l 1,34,-1
 1046 1581 l 1,35,36
 1044 1591 1044 1591 1044 1614.5 c 128,-1,37
 1044 1638 1044 1638 1079 1672 c 128,-1,38
 1114 1706 1114 1706 1174 1706 c 0,39,40
 1296 1706 1296 1706 1296 1560 c 0,41,42
 1296 1546 1296 1546 1295 1530 c 2,43,-1
 1227 749 l 1,44,-1
 1843 1205 l 2,45,46
 1902 1249 1902 1249 1947.5 1249 c 128,-1,47
 1993 1249 1993 1249 2032 1208 c 128,-1,48
 2071 1167 2071 1167 2071 1112 c 128,-1,49
 2071 1057 2071 1057 2043.5 1030.5 c 128,-1,50
 2016 1004 2016 1004 1970 985 c 1,51,-1
 1277 652 l 1,52,-1
 1986 320 l 1,53,54
 2071 277 2071 277 2071 202 c 2,55,56
 2071 202 2071 202 2071 197 c 0,57,58
 2071 140 2071 140 2030.5 100.5 c 128,-1,59
 1990 61 1990 61 1947.5 61 c 128,-1,60
 1905 61 1905 61 1759 168 c 1,61,-1
 1227 553 l 1,0,-1
EndSplineSet
Validated: 1
EndChar

StartChar: uni29BC
Encoding: 10684 10684 18
Width: 1765
Flags: W
HStem: -250 137<707 1059 707 1098> 174 244<1171 1233> 643 244<531 595 531 597> 1167 139<707 1059>
VStem: 104 139<352 705 352 743> 442 244<730 795> 1079 244<262 327> 1522 139<352 705>
LayerCount: 2
Fore
SplineSet
1323 295 m 0,0,1
 1323 244 1323 244 1287 209 c 128,-1,2
 1251 174 1251 174 1198 174 c 0,3,4
 1150 174 1150 174 1114.5 210 c 128,-1,5
 1079 246 1079 246 1079 295 c 0,6,7
 1079 343 1079 343 1117 380.5 c 128,-1,8
 1155 418 1155 418 1204 418 c 0,9,10
 1250 418 1250 418 1286.5 380 c 128,-1,11
 1323 342 1323 342 1323 295 c 0,0,1
1309 856 m 1,12,-1
 553 100 l 1,13,-1
 455 199 l 1,14,-1
 1210 954 l 1,15,-1
 1309 856 l 1,12,-1
686 762 m 128,-1,17
 686 713 686 713 650 678 c 128,-1,18
 614 643 614 643 563 643 c 0,19,20
 514 643 514 643 478 678.5 c 128,-1,21
 442 714 442 714 442 762 c 0,22,23
 442 811 442 811 479 849 c 128,-1,24
 516 887 516 887 563 887 c 0,25,26
 611 887 611 887 648.5 849 c 128,-1,16
 686 811 686 811 686 762 c 128,-1,17
1661 528 m 0,27,28
 1661 370 1661 370 1599.5 225.5 c 128,-1,29
 1538 81 1538 81 1434 -23 c 128,-1,30
 1330 -127 1330 -127 1185.5 -188.5 c 128,-1,31
 1041 -250 1041 -250 883 -250 c 0,32,33
 756 -250 756 -250 637 -211 c 128,-1,34
 518 -172 518 -172 422.5 -100 c 128,-1,35
 327 -28 327 -28 255 68 c 128,-1,36
 183 164 183 164 143.5 282.5 c 128,-1,37
 104 401 104 401 104 528 c 0,38,39
 104 739 104 739 208.5 918.5 c 128,-1,40
 313 1098 313 1098 492.5 1202.5 c 128,-1,41
 672 1307 672 1307 883 1307 c 0,42,43
 1010 1307 1010 1307 1128.5 1267.5 c 128,-1,44
 1247 1228 1247 1228 1343 1156 c 128,-1,45
 1439 1084 1439 1084 1511 988.5 c 128,-1,46
 1583 893 1583 893 1622 774 c 128,-1,47
 1661 655 1661 655 1661 528 c 0,27,28
1522 528 m 128,-1,49
 1522 658 1522 658 1471.5 776 c 128,-1,50
 1421 894 1421 894 1335 980 c 128,-1,51
 1249 1066 1249 1066 1131 1116.5 c 128,-1,52
 1013 1167 1013 1167 883 1167 c 128,-1,53
 753 1167 753 1167 635 1116.5 c 128,-1,54
 517 1066 517 1066 431 980 c 128,-1,55
 345 894 345 894 294.5 776 c 128,-1,56
 244 658 244 658 244 528 c 128,-1,57
 244 398 244 398 294.5 279.5 c 128,-1,58
 345 161 345 161 431 75 c 128,-1,59
 517 -11 517 -11 635 -62 c 128,-1,60
 753 -113 753 -113 883 -113 c 128,-1,61
 1013 -113 1013 -113 1131 -62 c 128,-1,62
 1249 -11 1249 -11 1335 75 c 128,-1,63
 1421 161 1421 161 1471.5 279.5 c 128,-1,48
 1522 398 1522 398 1522 528 c 128,-1,49
EndSplineSet
Validated: 1
EndChar

StartChar: uni2986
Encoding: 10630 10630 19
Width: 894
VWidth: 2216
Flags: W
LayerCount: 2
Fore
SplineSet
131 1661 m 1,0,1
 131 1661 131 1661 251 1661 c 1,2,3
 377 1530 377 1530 451 1418 c 128,-1,4
 525 1306 525 1306 575.5 1193 c 128,-1,5
 626 1080 626 1080 663.5 925.5 c 128,-1,6
 701 771 701 771 701 590 c 0,7,8
 701 378 701 378 644.5 181.5 c 128,-1,9
 588 -15 588 -15 487 -182 c 128,-1,10
 386 -349 386 -349 252 -481 c 1,11,12
 252 -481 252 -481 131 -481 c 1,13,14
 177 -322 177 -322 213 -138.5 c 128,-1,15
 249 45 249 45 269.5 234.5 c 128,-1,16
 290 424 290 424 290 592.5 c 128,-1,17
 290 761 290 761 269.5 949.5 c 128,-1,18
 249 1138 249 1138 213.5 1321 c 128,-1,19
 178 1504 178 1504 131 1661 c 1,0,1
383 590 m 2,20,21
 383 102 383 102 262 -282 c 2,22,23
 262 -282 262 -282 225 -401 c 1,24,-1
 297 -300 l 2,25,26
 600 121 600 121 600 590 c 0,27,28
 600 815 600 815 529 1034.5 c 128,-1,29
 458 1254 458 1254 297 1480 c 2,30,31
 297 1480 297 1480 224 1583 c 1,32,-1
 262 1462 l 2,33,34
 383 1078 383 1078 383 598 c 2,35,36
 383 598 383 598 383 590 c 2,20,21
EndSplineSet
Validated: 1
EndChar

StartChar: uni2985
Encoding: 10629 10629 20
Width: 894
VWidth: 2216
Flags: W
LayerCount: 2
Fore
SplineSet
694 -481 m 1,0,1
 694 -481 694 -481 573 -481 c 1,2,3
 440 -349 440 -349 338.5 -182 c 128,-1,4
 237 -15 237 -15 180.5 181.5 c 128,-1,5
 124 378 124 378 124 590 c 0,6,7
 124 771 124 771 161.5 925.5 c 128,-1,8
 199 1080 199 1080 249.5 1193 c 128,-1,9
 300 1306 300 1306 374 1418 c 128,-1,10
 448 1530 448 1530 574 1661 c 1,11,12
 574 1661 574 1661 694 1661 c 1,13,14
 647 1504 647 1504 611.5 1321 c 128,-1,15
 576 1138 576 1138 555.5 949.5 c 128,-1,16
 535 761 535 761 535 592.5 c 128,-1,17
 535 424 535 424 555.5 234.5 c 128,-1,18
 576 45 576 45 612 -138.5 c 128,-1,19
 648 -322 648 -322 694 -481 c 1,0,1
225 590 m 0,20,21
 225 121 225 121 528 -300 c 2,22,23
 528 -300 528 -300 600 -401 c 1,24,-1
 563 -282 l 2,25,26
 442 102 442 102 442 582 c 2,27,28
 442 582 442 582 442 590 c 2,29,30
 442 1078 442 1078 563 1462 c 2,31,32
 563 1462 563 1462 601 1583 c 1,33,-1
 528 1480 l 2,34,35
 367 1253 367 1253 296 1034 c 128,-1,36
 225 815 225 815 225 590 c 0,20,21
EndSplineSet
Validated: 1
EndChar

StartChar: uni061F
Encoding: 1567 1567 21
Width: 1233
Flags: W
LayerCount: 2
Fore
SplineSet
616 412 m 1,0,-1
 616 446 l 2,1,2
 616 505 616 505 604 547.5 c 128,-1,3
 592 590 592 590 557 633 c 128,-1,4
 522 676 522 676 452 733 c 0,5,6
 378 794 378 794 324 848.5 c 128,-1,7
 270 903 270 903 240.5 967.5 c 128,-1,8
 211 1032 211 1032 211 1124 c 0,9,10
 211 1290 211 1290 317.5 1386.5 c 128,-1,11
 424 1483 424 1483 618 1483 c 0,12,13
 741 1483 741 1483 840.5 1454 c 128,-1,14
 940 1425 940 1425 1022 1382 c 1,15,-1
 958 1239 l 1,16,17
 888 1274 888 1274 810.5 1299.5 c 128,-1,18
 733 1325 733 1325 630 1325 c 0,19,20
 511 1325 511 1325 447 1272 c 128,-1,21
 383 1219 383 1219 383 1120 c 0,22,23
 383 1059 383 1059 401 1016 c 128,-1,24
 419 973 419 973 464.5 928 c 128,-1,25
 510 883 510 883 587 815 c 0,26,27
 655 760 655 760 692 708.5 c 128,-1,28
 729 657 729 657 744 601 c 128,-1,29
 759 545 759 545 759 467 c 2,30,-1
 759 412 l 1,31,-1
 616 412 l 1,0,-1
680 -29 m 0,32,33
 629 -29 629 -29 592 4 c 128,-1,34
 555 37 555 37 555 111 c 0,35,36
 555 187 555 187 591.5 217.5 c 128,-1,37
 628 248 628 248 680 248 c 0,38,39
 735 248 735 248 771 217 c 128,-1,40
 807 186 807 186 807 111 c 0,41,42
 807 37 807 37 771 4 c 128,-1,43
 735 -29 735 -29 680 -29 c 0,32,33
EndSplineSet
Validated: 1
EndChar

StartChar: u1D5A0
Encoding: 120224 120224 22
Width: 1479
Flags: W
LayerCount: 2
Fore
SplineSet
410 541 m 1,0,-1
 958 541 l 1,1,-1
 684 1251 l 1,2,-1
 410 541 l 1,0,-1
-12 0 m 1,3,-1
 -12 106 l 1,4,-1
 119 106 l 1,5,-1
 651 1493 l 1,6,-1
 819 1493 l 1,7,-1
 1352 106 l 1,8,-1
 1499 106 l 1,9,-1
 1499 0 l 1,10,-1
 956 0 l 1,11,-1
 956 106 l 1,12,-1
 1122 106 l 1,13,-1
 997 434 l 1,14,-1
 369 434 l 1,15,-1
 244 106 l 1,16,-1
 408 106 l 1,17,-1
 408 0 l 1,18,-1
 -12 0 l 1,3,-1
EndSplineSet
Validated: 1
EndChar

StartChar: u1D5A1
Encoding: 120225 120225 23
Width: 1505
Flags: W
LayerCount: 2
Fore
SplineSet
506 106 m 1,0,-1
 805 106 l 2,1,2
 985 106 985 106 1068 184 c 128,-1,3
 1151 262 1151 262 1151 432 c 0,4,5
 1151 601 1151 601 1068.5 678.5 c 128,-1,6
 986 756 986 756 805 756 c 2,7,-1
 506 756 l 1,8,-1
 506 106 l 1,0,-1
506 862 m 1,9,-1
 760 862 l 2,10,11
 924 862 924 862 999.5 925 c 128,-1,12
 1075 988 1075 988 1075 1124 c 0,13,14
 1075 1261 1075 1261 999.5 1323.5 c 128,-1,15
 924 1386 924 1386 760 1386 c 2,16,-1
 506 1386 l 1,17,-1
 506 862 l 1,9,-1
113 0 m 1,18,-1
 113 106 l 1,19,-1
 303 106 l 1,20,-1
 303 1386 l 1,21,-1
 113 1386 l 1,22,-1
 113 1493 l 1,23,-1
 850 1493 l 2,24,25
 1076 1493 1076 1493 1190.5 1400.5 c 128,-1,26
 1305 1308 1305 1308 1305 1124 c 0,27,28
 1305 991 1305 991 1225.5 912 c 128,-1,29
 1146 833 1146 833 993 815 c 1,30,31
 1183 791 1183 791 1281.5 693.5 c 128,-1,32
 1380 596 1380 596 1380 432 c 0,33,34
 1380 210 1380 210 1240 105 c 128,-1,35
 1100 0 1100 0 803 0 c 2,36,-1
 113 0 l 1,18,-1
EndSplineSet
Validated: 1
EndChar

StartChar: u1D5A2
Encoding: 120226 120226 24
Width: 1567
Flags: W
LayerCount: 2
Fore
SplineSet
1444 395 m 1,0,1
 1378 186 1378 186 1222.5 78.5 c 128,-1,2
 1067 -29 1067 -29 829 -29 c 0,3,4
 683 -29 683 -29 558 21 c 128,-1,5
 433 71 433 71 336 168 c 0,6,7
 224 280 224 280 169.5 422.5 c 128,-1,8
 115 565 115 565 115 745 c 0,9,10
 115 1093 115 1093 316 1306.5 c 128,-1,11
 517 1520 517 1520 846 1520 c 0,12,13
 968 1520 968 1520 1106 1488 c 128,-1,14
 1244 1456 1244 1456 1403 1391 c 1,15,-1
 1403 1047 l 1,16,-1
 1290 1047 l 1,17,18
 1253 1235 1253 1235 1141.5 1324 c 128,-1,19
 1030 1413 1030 1413 829 1413 c 0,20,21
 590 1413 590 1413 467 1243.5 c 128,-1,22
 344 1074 344 1074 344 745 c 0,23,24
 344 417 344 417 467 247.5 c 128,-1,25
 590 78 590 78 829 78 c 0,26,27
 996 78 996 78 1104 157.5 c 128,-1,28
 1212 237 1212 237 1260 395 c 1,29,-1
 1444 395 l 1,0,1
EndSplineSet
Validated: 1
EndChar

StartChar: u1D5A3
Encoding: 120227 120227 25
Width: 1642
Flags: W
LayerCount: 2
Fore
SplineSet
506 106 m 1,0,-1
 692 106 l 2,1,2
 983 106 983 106 1138.5 272 c 128,-1,3
 1294 438 1294 438 1294 748 c 256,4,5
 1294 1058 1294 1058 1139 1222 c 128,-1,6
 984 1386 984 1386 692 1386 c 2,7,-1
 506 1386 l 1,8,-1
 506 106 l 1,0,-1
113 0 m 1,9,-1
 113 106 l 1,10,-1
 303 106 l 1,11,-1
 303 1386 l 1,12,-1
 113 1386 l 1,13,-1
 113 1493 l 1,14,-1
 707 1493 l 2,15,16
 1093 1493 1093 1493 1308.5 1296 c 128,-1,17
 1524 1099 1524 1099 1524 748 c 0,18,19
 1524 396 1524 396 1308 198 c 128,-1,20
 1092 0 1092 0 707 0 c 2,21,-1
 113 0 l 1,9,-1
EndSplineSet
Validated: 1
EndChar

StartChar: u1D5A4
Encoding: 120228 120228 26
Width: 1495
Flags: W
LayerCount: 2
Fore
SplineSet
113 0 m 1,0,-1
 113 106 l 1,1,-1
 303 106 l 1,2,-1
 303 1386 l 1,3,-1
 113 1386 l 1,4,-1
 113 1493 l 1,5,-1
 1315 1493 l 1,6,-1
 1315 1161 l 1,7,-1
 1192 1161 l 1,8,-1
 1192 1370 l 1,9,-1
 506 1370 l 1,10,-1
 506 870 l 1,11,-1
 995 870 l 1,12,-1
 995 1057 l 1,13,-1
 1118 1057 l 1,14,-1
 1118 561 l 1,15,-1
 995 561 l 1,16,-1
 995 748 l 1,17,-1
 506 748 l 1,18,-1
 506 123 l 1,19,-1
 1208 123 l 1,20,-1
 1208 332 l 1,21,-1
 1331 332 l 1,22,-1
 1331 0 l 1,23,-1
 113 0 l 1,0,-1
EndSplineSet
Validated: 1
EndChar

StartChar: u1D5A5
Encoding: 120229 120229 27
Width: 1421
Flags: W
LayerCount: 2
Fore
SplineSet
113 0 m 1,0,-1
 113 106 l 1,1,-1
 303 106 l 1,2,-1
 303 1386 l 1,3,-1
 113 1386 l 1,4,-1
 113 1493 l 1,5,-1
 1335 1493 l 1,6,-1
 1335 1161 l 1,7,-1
 1212 1161 l 1,8,-1
 1212 1370 l 1,9,-1
 506 1370 l 1,10,-1
 506 870 l 1,11,-1
 1016 870 l 1,12,-1
 1016 1057 l 1,13,-1
 1139 1057 l 1,14,-1
 1139 561 l 1,15,-1
 1016 561 l 1,16,-1
 1016 748 l 1,17,-1
 506 748 l 1,18,-1
 506 106 l 1,19,-1
 745 106 l 1,20,-1
 745 0 l 1,21,-1
 113 0 l 1,0,-1
EndSplineSet
Validated: 1
EndChar

StartChar: u1D5A6
Encoding: 120230 120230 28
Width: 1636
Flags: W
LayerCount: 2
Fore
SplineSet
1311 1047 m 1,0,1
 1276 1234 1276 1234 1165 1323.5 c 128,-1,2
 1054 1413 1054 1413 856 1413 c 0,3,4
 598 1413 598 1413 471 1247 c 128,-1,5
 344 1081 344 1081 344 745 c 0,6,7
 344 416 344 416 475 247 c 128,-1,8
 606 78 606 78 860 78 c 0,9,10
 973 78 973 78 1076 106 c 128,-1,11
 1179 134 1179 134 1272 190 c 1,12,-1
 1272 575 l 1,13,-1
 991 575 l 1,14,-1
 991 682 l 1,15,-1
 1475 682 l 1,16,-1
 1475 125 l 1,17,18
 1342 48 1342 48 1188.5 9.5 c 128,-1,19
 1035 -29 1035 -29 860 -29 c 0,20,21
 522 -29 522 -29 318.5 182.5 c 128,-1,22
 115 394 115 394 115 745 c 0,23,24
 115 1099 115 1099 319 1309.5 c 128,-1,25
 523 1520 523 1520 868 1520 c 0,26,27
 996 1520 996 1520 1132.5 1490.5 c 128,-1,28
 1269 1461 1269 1461 1423 1401 c 1,29,-1
 1423 1047 l 1,30,-1
 1311 1047 l 1,0,1
EndSplineSet
Validated: 1
EndChar

StartChar: u1D5A7
Encoding: 120231 120231 29
Width: 1786
Flags: W
LayerCount: 2
Fore
SplineSet
113 0 m 1,0,-1
 113 106 l 1,1,-1
 303 106 l 1,2,-1
 303 1386 l 1,3,-1
 113 1386 l 1,4,-1
 113 1493 l 1,5,-1
 696 1493 l 1,6,-1
 696 1386 l 1,7,-1
 506 1386 l 1,8,-1
 506 870 l 1,9,-1
 1280 870 l 1,10,-1
 1280 1386 l 1,11,-1
 1090 1386 l 1,12,-1
 1090 1493 l 1,13,-1
 1673 1493 l 1,14,-1
 1673 1386 l 1,15,-1
 1483 1386 l 1,16,-1
 1483 106 l 1,17,-1
 1673 106 l 1,18,-1
 1673 0 l 1,19,-1
 1090 0 l 1,20,-1
 1090 106 l 1,21,-1
 1280 106 l 1,22,-1
 1280 748 l 1,23,-1
 506 748 l 1,24,-1
 506 106 l 1,25,-1
 696 106 l 1,26,-1
 696 0 l 1,27,-1
 113 0 l 1,0,-1
EndSplineSet
Validated: 1
EndChar

StartChar: u1D5A8
Encoding: 120232 120232 30
Width: 809
Flags: W
LayerCount: 2
Fore
SplineSet
506 106 m 1,0,-1
 696 106 l 1,1,-1
 696 0 l 1,2,-1
 113 0 l 1,3,-1
 113 106 l 1,4,-1
 303 106 l 1,5,-1
 303 1386 l 1,6,-1
 113 1386 l 1,7,-1
 113 1493 l 1,8,-1
 696 1493 l 1,9,-1
 696 1386 l 1,10,-1
 506 1386 l 1,11,-1
 506 106 l 1,0,-1
EndSplineSet
Validated: 1
EndChar

StartChar: u1D5A9
Encoding: 120233 120233 31
Width: 821
Flags: W
LayerCount: 2
Fore
SplineSet
-172 -358 m 1,0,-1
 -172 -123 l 1,1,-1
 -58 -123 l 1,2,3
 -55 -222 -55 -222 -11 -270.5 c 128,-1,4
 33 -319 33 -319 121 -319 c 0,5,6
 240 -319 240 -319 287 -244 c 128,-1,7
 334 -169 334 -169 334 49 c 2,8,-1
 334 1386 l 1,9,-1
 102 1386 l 1,10,-1
 102 1493 l 1,11,-1
 727 1493 l 1,12,-1
 727 1386 l 1,13,-1
 537 1386 l 1,14,-1
 537 41 l 2,15,16
 537 -206 537 -206 438 -316 c 128,-1,17
 339 -426 339 -426 119 -426 c 0,18,19
 48 -426 48 -426 -25.5 -409 c 128,-1,20
 -99 -392 -99 -392 -172 -358 c 1,0,-1
EndSplineSet
Validated: 1
EndChar

StartChar: u1D5AA
Encoding: 120234 120234 32
Width: 1530
Flags: W
LayerCount: 2
Fore
SplineSet
113 0 m 1,0,-1
 113 106 l 1,1,-1
 303 106 l 1,2,-1
 303 1386 l 1,3,-1
 113 1386 l 1,4,-1
 113 1493 l 1,5,-1
 696 1493 l 1,6,-1
 696 1386 l 1,7,-1
 506 1386 l 1,8,-1
 506 821 l 1,9,-1
 1149 1386 l 1,10,-1
 987 1386 l 1,11,-1
 987 1493 l 1,12,-1
 1483 1493 l 1,13,-1
 1483 1386 l 1,14,-1
 1315 1386 l 1,15,-1
 674 823 l 1,16,-1
 1391 106 l 1,17,-1
 1561 106 l 1,18,-1
 1561 0 l 1,19,-1
 1214 0 l 1,20,-1
 506 709 l 1,21,-1
 506 106 l 1,22,-1
 696 106 l 1,23,-1
 696 0 l 1,24,-1
 113 0 l 1,0,-1
EndSplineSet
Validated: 1
EndChar

StartChar: u1D5AB
Encoding: 120235 120235 33
Width: 1360
Flags: W
LayerCount: 2
Fore
SplineSet
113 0 m 1,0,-1
 113 106 l 1,1,-1
 303 106 l 1,2,-1
 303 1386 l 1,3,-1
 113 1386 l 1,4,-1
 113 1493 l 1,5,-1
 696 1493 l 1,6,-1
 696 1386 l 1,7,-1
 506 1386 l 1,8,-1
 506 123 l 1,9,-1
 1188 123 l 1,10,-1
 1188 373 l 1,11,-1
 1311 373 l 1,12,-1
 1311 0 l 1,13,-1
 113 0 l 1,0,-1
EndSplineSet
Validated: 1
EndChar

StartChar: u1D5AC
Encoding: 120236 120236 34
Width: 2097
Flags: W
LayerCount: 2
Fore
SplineSet
113 0 m 1,0,-1
 113 106 l 1,1,-1
 303 106 l 1,2,-1
 303 1386 l 1,3,-1
 102 1386 l 1,4,-1
 102 1493 l 1,5,-1
 537 1493 l 1,6,-1
 1061 430 l 1,7,-1
 1585 1493 l 1,8,-1
 1993 1493 l 1,9,-1
 1993 1386 l 1,10,-1
 1794 1386 l 1,11,-1
 1794 106 l 1,12,-1
 1985 106 l 1,13,-1
 1985 0 l 1,14,-1
 1401 0 l 1,15,-1
 1401 106 l 1,16,-1
 1591 106 l 1,17,-1
 1591 1260 l 1,18,-1
 1079 219 l 1,19,-1
 938 219 l 1,20,-1
 426 1260 l 1,21,-1
 426 106 l 1,22,-1
 616 106 l 1,23,-1
 616 0 l 1,24,-1
 113 0 l 1,0,-1
EndSplineSet
Validated: 1
EndChar

StartChar: u1D5AD
Encoding: 120237 120237 35
Width: 1792
Flags: W
LayerCount: 2
Fore
SplineSet
100 0 m 1,0,-1
 100 106 l 1,1,-1
 301 106 l 1,2,-1
 301 1386 l 1,3,-1
 100 1386 l 1,4,-1
 100 1493 l 1,5,-1
 483 1493 l 1,6,-1
 1378 315 l 1,7,-1
 1378 1386 l 1,8,-1
 1178 1386 l 1,9,-1
 1178 1493 l 1,10,-1
 1702 1493 l 1,11,-1
 1702 1386 l 1,12,-1
 1501 1386 l 1,13,-1
 1501 -29 l 1,14,-1
 1380 -29 l 1,15,-1
 424 1229 l 1,16,-1
 424 106 l 1,17,-1
 625 106 l 1,18,-1
 625 0 l 1,19,-1
 100 0 l 1,0,-1
EndSplineSet
Validated: 1
EndChar

StartChar: u1D5AE
Encoding: 120238 120238 36
Width: 1679
Flags: W
LayerCount: 2
Fore
SplineSet
840 78 m 0,0,1
 1085 78 1085 78 1210 246.5 c 128,-1,2
 1335 415 1335 415 1335 745 c 0,3,4
 1335 1076 1335 1076 1210 1244.5 c 128,-1,5
 1085 1413 1085 1413 840 1413 c 0,6,7
 594 1413 594 1413 469 1244.5 c 128,-1,8
 344 1076 344 1076 344 745 c 0,9,10
 344 415 344 415 469 246.5 c 128,-1,11
 594 78 594 78 840 78 c 0,0,1
840 -29 m 0,12,13
 688 -29 688 -29 560.5 21 c 128,-1,14
 433 71 433 71 336 168 c 0,15,16
 224 280 224 280 169.5 422 c 128,-1,17
 115 564 115 564 115 745 c 256,18,19
 115 926 115 926 169.5 1068.5 c 128,-1,20
 224 1211 224 1211 336 1323 c 0,21,22
 434 1421 434 1421 560 1470.5 c 128,-1,23
 686 1520 686 1520 840 1520 c 0,24,25
 1165 1520 1165 1520 1365 1307 c 128,-1,26
 1565 1094 1565 1094 1565 745 c 0,27,28
 1565 566 1565 566 1510 422.5 c 128,-1,29
 1455 279 1455 279 1343 168 c 0,30,31
 1245 70 1245 70 1119 20.5 c 128,-1,32
 993 -29 993 -29 840 -29 c 0,12,13
EndSplineSet
Validated: 1
EndChar

StartChar: u1D5AF
Encoding: 120239 120239 37
Width: 1378
Flags: W
LayerCount: 2
Fore
SplineSet
506 760 m 1,0,-1
 770 760 l 2,1,2
 919 760 919 760 997 840.5 c 128,-1,3
 1075 921 1075 921 1075 1073 c 0,4,5
 1075 1226 1075 1226 997 1306 c 128,-1,6
 919 1386 919 1386 770 1386 c 2,7,-1
 506 1386 l 1,8,-1
 506 760 l 1,0,-1
113 0 m 1,9,-1
 113 106 l 1,10,-1
 303 106 l 1,11,-1
 303 1386 l 1,12,-1
 113 1386 l 1,13,-1
 113 1493 l 1,14,-1
 819 1493 l 2,15,16
 1043 1493 1043 1493 1174 1379.5 c 128,-1,17
 1305 1266 1305 1266 1305 1073 c 0,18,19
 1305 881 1305 881 1174 767 c 128,-1,20
 1043 653 1043 653 819 653 c 2,21,-1
 506 653 l 1,22,-1
 506 106 l 1,23,-1
 737 106 l 1,24,-1
 737 0 l 1,25,-1
 113 0 l 1,9,-1
EndSplineSet
Validated: 1
EndChar

StartChar: u1D5B0
Encoding: 120240 120240 38
Width: 1679
Flags: W
LayerCount: 2
Fore
SplineSet
864 -29 m 1,0,1
 521 -29 521 -29 318 181.5 c 128,-1,2
 115 392 115 392 115 745 c 0,3,4
 115 926 115 926 169.5 1068.5 c 128,-1,5
 224 1211 224 1211 336 1323 c 0,6,7
 434 1421 434 1421 560 1470.5 c 128,-1,8
 686 1520 686 1520 840 1520 c 0,9,10
 1165 1520 1165 1520 1365 1307 c 128,-1,11
 1565 1094 1565 1094 1565 745 c 0,12,13
 1565 449 1565 449 1415 247.5 c 128,-1,14
 1265 46 1265 46 1001 -12 c 1,15,16
 1055 -79 1055 -79 1132.5 -111 c 128,-1,17
 1210 -143 1210 -143 1319 -143 c 2,18,-1
 1350 -143 l 1,19,-1
 1350 -328 l 1,20,21
 1181 -320 1181 -320 1060.5 -245.5 c 128,-1,22
 940 -171 940 -171 864 -29 c 1,0,1
840 78 m 0,23,24
 1085 78 1085 78 1210 246.5 c 128,-1,25
 1335 415 1335 415 1335 745 c 0,26,27
 1335 1076 1335 1076 1210 1244.5 c 128,-1,28
 1085 1413 1085 1413 840 1413 c 0,29,30
 594 1413 594 1413 469 1244.5 c 128,-1,31
 344 1076 344 1076 344 745 c 0,32,33
 344 415 344 415 469 246.5 c 128,-1,34
 594 78 594 78 840 78 c 0,23,24
EndSplineSet
Validated: 1
EndChar

StartChar: u1D5B1
Encoding: 120241 120241 39
Width: 1542
Flags: W
LayerCount: 2
Fore
SplineSet
981 741 m 1,0,1
 1051 722 1051 722 1101.5 676.5 c 128,-1,2
 1152 631 1152 631 1192 549 c 2,3,-1
 1409 106 l 1,4,-1
 1591 106 l 1,5,-1
 1591 0 l 1,6,-1
 1239 0 l 1,7,-1
 1006 475 l 2,8,9
 939 613 939 613 883 653.5 c 128,-1,10
 827 694 827 694 729 694 c 2,11,-1
 506 694 l 1,12,-1
 506 106 l 1,13,-1
 717 106 l 1,14,-1
 717 0 l 1,15,-1
 113 0 l 1,16,-1
 113 106 l 1,17,-1
 303 106 l 1,18,-1
 303 1386 l 1,19,-1
 113 1386 l 1,20,-1
 113 1493 l 1,21,-1
 870 1493 l 2,22,23
 1088 1493 1088 1493 1206.5 1389 c 128,-1,24
 1325 1285 1325 1285 1325 1094 c 0,25,26
 1325 940 1325 940 1238.5 851.5 c 128,-1,27
 1152 763 1152 763 981 741 c 1,0,1
506 801 m 1,28,-1
 801 801 l 2,29,30
 952 801 952 801 1024 872.5 c 128,-1,31
 1096 944 1096 944 1096 1094 c 256,32,33
 1096 1244 1096 1244 1024 1315 c 128,-1,34
 952 1386 952 1386 801 1386 c 2,35,-1
 506 1386 l 1,36,-1
 506 801 l 1,28,-1
EndSplineSet
Validated: 1
EndChar

StartChar: u1D5B2
Encoding: 120242 120242 40
Width: 1403
Flags: W
LayerCount: 2
Fore
SplineSet
190 72 m 1,0,-1
 190 412 l 1,1,-1
 305 411 l 1,2,3
 310 241 310 241 403.5 159.5 c 128,-1,4
 497 78 497 78 688 78 c 0,5,6
 866 78 866 78 959.5 148.5 c 128,-1,7
 1053 219 1053 219 1053 354 c 0,8,9
 1053 462 1053 462 996.5 520 c 128,-1,10
 940 578 940 578 758 633 c 2,11,-1
 561 692 l 2,12,13
 347 757 347 757 259.5 854 c 128,-1,14
 172 951 172 951 172 1120 c 0,15,16
 172 1310 172 1310 307 1415 c 128,-1,17
 442 1520 442 1520 686 1520 c 0,18,19
 790 1520 790 1520 914 1497.5 c 128,-1,20
 1038 1475 1038 1475 1178 1432 c 1,21,-1
 1178 1114 l 1,22,-1
 1065 1114 l 1,23,24
 1048 1272 1048 1272 959.5 1342.5 c 128,-1,25
 871 1413 871 1413 690 1413 c 0,26,27
 532 1413 532 1413 449.5 1348.5 c 128,-1,28
 367 1284 367 1284 367 1161 c 0,29,30
 367 1054 367 1054 429 993 c 128,-1,31
 491 932 491 932 692 872 c 2,32,-1
 877 817 l 2,33,34
 1080 756 1080 756 1166.5 661.5 c 128,-1,35
 1253 567 1253 567 1253 408 c 0,36,37
 1253 191 1253 191 1114 81 c 128,-1,38
 975 -29 975 -29 700 -29 c 0,39,40
 577 -29 577 -29 449.5 -4 c 128,-1,41
 322 21 322 21 190 72 c 1,0,-1
EndSplineSet
Validated: 1
EndChar

StartChar: u1D5B3
Encoding: 120243 120243 41
Width: 1366
Flags: W
LayerCount: 2
Fore
SplineSet
391 0 m 1,0,-1
 391 106 l 1,1,-1
 582 106 l 1,2,-1
 582 1374 l 1,3,-1
 143 1374 l 1,4,-1
 143 1141 l 1,5,-1
 20 1141 l 1,6,-1
 20 1493 l 1,7,-1
 1346 1493 l 1,8,-1
 1346 1141 l 1,9,-1
 1223 1141 l 1,10,-1
 1223 1374 l 1,11,-1
 784 1374 l 1,12,-1
 784 106 l 1,13,-1
 975 106 l 1,14,-1
 975 0 l 1,15,-1
 391 0 l 1,0,-1
EndSplineSet
Validated: 1
EndChar

StartChar: u1D5B4
Encoding: 120244 120244 42
Width: 1726
Flags: W
LayerCount: 2
Fore
SplineSet
287 1386 m 1,0,-1
 96 1386 l 1,1,-1
 96 1493 l 1,2,-1
 680 1493 l 1,3,-1
 680 1386 l 1,4,-1
 489 1386 l 1,5,-1
 489 614 l 2,6,7
 489 328 489 328 582.5 215 c 128,-1,8
 676 102 676 102 905 102 c 256,9,10
 1134 102 1134 102 1227.5 215 c 128,-1,11
 1321 328 1321 328 1321 614 c 2,12,-1
 1321 1386 l 1,13,-1
 1130 1386 l 1,14,-1
 1130 1493 l 1,15,-1
 1634 1493 l 1,16,-1
 1634 1386 l 1,17,-1
 1444 1386 l 1,18,-1
 1444 594 l 2,19,20
 1444 253 1444 253 1313 112 c 128,-1,21
 1182 -29 1182 -29 868 -29 c 256,22,23
 554 -29 554 -29 420.5 113 c 128,-1,24
 287 255 287 255 287 594 c 2,25,-1
 287 1386 l 1,0,-1
EndSplineSet
Validated: 1
EndChar

StartChar: u1D5B5
Encoding: 120245 120245 43
Width: 1479
Flags: W
LayerCount: 2
Fore
SplineSet
358 1386 m 1,0,-1
 799 240 l 1,1,-1
 1239 1386 l 1,2,-1
 1071 1386 l 1,3,-1
 1071 1493 l 1,4,-1
 1509 1493 l 1,5,-1
 1509 1386 l 1,6,-1
 1364 1386 l 1,7,-1
 831 0 l 1,8,-1
 659 0 l 1,9,-1
 129 1386 l 1,10,-1
 -20 1386 l 1,11,-1
 -20 1493 l 1,12,-1
 524 1493 l 1,13,-1
 524 1386 l 1,14,-1
 358 1386 l 1,0,-1
EndSplineSet
Validated: 1
EndChar

StartChar: u1D5B6
Encoding: 120246 120246 44
Width: 2105
Flags: W
LayerCount: 2
Fore
SplineSet
1561 0 m 1,0,-1
 1397 0 l 1,1,-1
 1055 1214 l 1,2,-1
 713 0 l 1,3,-1
 549 0 l 1,4,-1
 158 1386 l 1,5,-1
 10 1386 l 1,6,-1
 10 1493 l 1,7,-1
 555 1493 l 1,8,-1
 555 1386 l 1,9,-1
 369 1386 l 1,10,-1
 680 283 l 1,11,-1
 1020 1493 l 1,12,-1
 1182 1493 l 1,13,-1
 1528 270 l 1,14,-1
 1841 1386 l 1,15,-1
 1669 1386 l 1,16,-1
 1669 1493 l 1,17,-1
 2099 1493 l 1,18,-1
 2099 1386 l 1,19,-1
 1952 1386 l 1,20,-1
 1561 0 l 1,0,-1
EndSplineSet
Validated: 1
EndChar

StartChar: u1D5B7
Encoding: 120247 120247 45
Width: 1458
Flags: W
LayerCount: 2
Fore
SplineSet
678 639 m 1,0,-1
 313 106 l 1,1,-1
 506 106 l 1,2,-1
 506 0 l 1,3,-1
 12 0 l 1,4,-1
 12 106 l 1,5,-1
 184 106 l 1,6,-1
 614 733 l 1,7,-1
 178 1386 l 1,8,-1
 18 1386 l 1,9,-1
 18 1493 l 1,10,-1
 610 1493 l 1,11,-1
 610 1386 l 1,12,-1
 434 1386 l 1,13,-1
 754 905 l 1,14,-1
 1083 1386 l 1,15,-1
 891 1386 l 1,16,-1
 891 1493 l 1,17,-1
 1380 1493 l 1,18,-1
 1380 1386 l 1,19,-1
 1212 1386 l 1,20,-1
 817 811 l 1,21,-1
 1288 106 l 1,22,-1
 1448 106 l 1,23,-1
 1448 0 l 1,24,-1
 856 0 l 1,25,-1
 856 106 l 1,26,-1
 1034 106 l 1,27,-1
 678 639 l 1,0,-1
EndSplineSet
Validated: 1
EndChar

StartChar: u1D5B8
Encoding: 120248 120248 46
Width: 1352
Flags: W
LayerCount: 2
Fore
SplineSet
387 0 m 1,0,-1
 387 106 l 1,1,-1
 578 106 l 1,2,-1
 578 643 l 1,3,-1
 117 1386 l 1,4,-1
 -23 1386 l 1,5,-1
 -23 1493 l 1,6,-1
 532 1493 l 1,7,-1
 532 1386 l 1,8,-1
 358 1386 l 1,9,-1
 731 782 l 1,10,-1
 1104 1386 l 1,11,-1
 936 1386 l 1,12,-1
 936 1493 l 1,13,-1
 1370 1493 l 1,14,-1
 1370 1386 l 1,15,-1
 1229 1386 l 1,16,-1
 780 662 l 1,17,-1
 780 106 l 1,18,-1
 971 106 l 1,19,-1
 971 0 l 1,20,-1
 387 0 l 1,0,-1
EndSplineSet
Validated: 1
EndChar

StartChar: u1D5B9
Encoding: 120249 120249 47
Width: 1423
Flags: W
LayerCount: 2
Fore
SplineSet
92 0 m 1,0,-1
 92 72 l 1,1,-1
 1022 1370 l 1,2,-1
 250 1370 l 1,3,-1
 250 1147 l 1,4,-1
 127 1147 l 1,5,-1
 127 1493 l 1,6,-1
 1307 1493 l 1,7,-1
 1307 1421 l 1,8,-1
 377 123 l 1,9,-1
 1221 123 l 1,10,-1
 1221 332 l 1,11,-1
 1343 332 l 1,12,-1
 1343 0 l 1,13,-1
 92 0 l 1,0,-1
EndSplineSet
Validated: 1
EndChar

StartChar: uni27A4
Encoding: 10148 10148 48
Width: 1716
Flags: W
LayerCount: 2
Fore
SplineSet
681 642 m 1,0,-1
 436 1097 l 1,1,-1
 1408 642 l 1,2,-1
 436 187 l 1,3,-1
 681 642 l 1,0,-1
EndSplineSet
Validated: 1
EndChar

StartChar: uniFF1B
Encoding: 65307 65307 49
Width: 1233
Flags: W
LayerCount: 2
Fore
SplineSet
784 984 m 0,0,1
 784 848 784 848 664 848 c 0,2,3
 536 848 536 848 536 984 c 0,4,5
 536 1128 536 1128 664 1128 c 0,6,7
 784 1128 784 1128 784 984 c 0,0,1
752 240 m 1,8,-1
 760 216 l 1,9,10
 712 8 712 8 584 -264 c 1,11,-1
 448 -264 l 1,12,-1
 552 240 l 1,13,-1
 752 240 l 1,8,-1
EndSplineSet
Validated: 1
EndChar

StartChar: uni2080
Encoding: 8320 8320 50
Width: 819
Flags: W
LayerCount: 2
Fore
SplineSet
412 -215 m 4,0,1
 295 -215 295 -215 220 -157.5 c 132,-1,2
 145 -100 145 -100 109.5 3.5 c 132,-1,3
 74 107 74 107 74 242 c 4,4,5
 74 379 74 379 109.5 480.5 c 132,-1,6
 145 582 145 582 220 638.5 c 132,-1,7
 295 695 295 695 412 695 c 4,8,9
 525 695 525 695 598.5 638.5 c 132,-1,10
 672 582 672 582 708.5 480.5 c 132,-1,11
 745 379 745 379 745 242 c 4,12,13
 745 107 745 107 708.5 3.5 c 132,-1,14
 672 -100 672 -100 598.5 -157.5 c 132,-1,15
 525 -215 525 -215 412 -215 c 4,0,1
412 -129 m 260,16,17
 496 -129 496 -129 527.5 -28.5 c 132,-1,18
 559 72 559 72 559 242 c 260,19,20
 559 412 559 412 527.5 510.5 c 132,-1,21
 496 609 496 609 412 609 c 260,22,23
 328 609 328 609 294 510.5 c 132,-1,24
 260 412 260 412 260 242 c 260,25,26
 260 72 260 72 294 -28.5 c 132,-1,27
 328 -129 328 -129 412 -129 c 260,16,17
EndSplineSet
Validated: 1
EndChar

StartChar: uni2081
Encoding: 8321 8321 51
Width: 819
Flags: W
LayerCount: 2
Fore
SplineSet
127 -200 m 5,0,-1
 127 -131 l 5,1,-1
 240 -131 l 6,2,3
 275 -131 275 -131 299.5 -117.5 c 132,-1,4
 324 -104 324 -104 324 -53 c 6,5,-1
 324 537 l 5,6,7
 283 500 283 500 257 480.5 c 132,-1,8
 231 461 231 461 210.5 454 c 132,-1,9
 190 447 190 447 160 447 c 4,10,11
 127 447 127 447 106.5 470.5 c 132,-1,12
 86 494 86 494 86 531 c 5,13,14
 117 537 117 537 147.5 542 c 132,-1,15
 178 547 178 547 231.5 573.5 c 132,-1,16
 285 600 285 600 381 666 c 6,17,-1
 406 684 l 5,18,-1
 508 684 l 5,19,-1
 508 -53 l 6,20,21
 508 -104 508 -104 533.5 -117.5 c 132,-1,22
 559 -131 559 -131 594 -131 c 6,23,-1
 688 -131 l 5,24,-1
 688 -200 l 5,25,-1
 127 -200 l 5,0,-1
EndSplineSet
Validated: 1
EndChar

StartChar: uni2082
Encoding: 8322 8322 52
Width: 819
Flags: W
LayerCount: 2
Fore
SplineSet
86 -200 m 5,0,-1
 86 -108 l 5,1,-1
 346 125 l 6,2,3
 407 180 407 180 442 236.5 c 132,-1,4
 477 293 477 293 491.5 349.5 c 132,-1,5
 506 406 506 406 506 459 c 4,6,7
 506 527 506 527 478.5 571 c 132,-1,8
 451 615 451 615 385 615 c 4,9,10
 336 615 336 615 306 590.5 c 132,-1,11
 276 566 276 566 263 525 c 132,-1,12
 250 484 250 484 250 437 c 5,13,14
 180 437 180 437 141 454 c 132,-1,15
 102 471 102 471 102 525 c 4,16,17
 102 574 102 574 134 613 c 132,-1,18
 166 652 166 652 229.5 674.5 c 132,-1,19
 293 697 293 697 385 697 c 4,20,21
 481 697 481 697 548.5 671 c 132,-1,22
 616 645 616 645 653 596 c 132,-1,23
 690 547 690 547 690 475 c 4,24,25
 690 412 690 412 669.5 356.5 c 132,-1,26
 649 301 649 301 601 245 c 132,-1,27
 553 189 553 189 467 115 c 6,28,-1
 250 -71 l 5,29,-1
 547 -71 l 6,30,31
 580 -71 580 -71 597 -60 c 132,-1,32
 614 -49 614 -49 623.5 -29.5 c 132,-1,33
 633 -10 633 -10 637 13 c 6,34,-1
 645 56 l 5,35,-1
 715 56 l 5,36,-1
 709 -200 l 5,37,-1
 86 -200 l 5,0,-1
EndSplineSet
Validated: 1
EndChar

StartChar: uni2083
Encoding: 8323 8323 53
Width: 819
Flags: W
LayerCount: 2
Fore
SplineSet
356 -215 m 4,0,1
 268 -215 268 -215 206.5 -193.5 c 132,-1,2
 145 -172 145 -172 113.5 -134 c 132,-1,3
 82 -96 82 -96 82 -47 c 4,4,5
 82 -2 82 -2 107.5 26 c 132,-1,6
 133 54 133 54 176 54 c 5,7,8
 176 -9 176 -9 219 -66 c 132,-1,9
 262 -123 262 -123 350 -123 c 4,10,11
 434 -123 434 -123 483 -81 c 132,-1,12
 532 -39 532 -39 532 56 c 4,13,14
 532 128 532 128 480 170.5 c 132,-1,15
 428 213 428 213 315 213 c 6,16,-1
 248 213 l 5,17,-1
 248 297 l 5,18,-1
 315 297 l 6,19,20
 393 297 393 297 445.5 344 c 132,-1,21
 498 391 498 391 498 473 c 4,22,23
 498 541 498 541 471 577 c 132,-1,24
 444 613 444 613 381 613 c 4,25,26
 303 613 303 613 274.5 559.5 c 132,-1,27
 246 506 246 506 246 434 c 5,28,29
 176 434 176 434 135 451.5 c 132,-1,30
 94 469 94 469 94 523 c 4,31,32
 94 572 94 572 127 610.5 c 132,-1,33
 160 649 160 649 224.5 672 c 132,-1,34
 289 695 289 695 381 695 c 4,35,36
 518 695 518 695 601 641.5 c 132,-1,37
 684 588 684 588 684 492 c 4,38,39
 684 404 684 404 621.5 349.5 c 132,-1,40
 559 295 559 295 475 271 c 5,41,-1
 475 260 l 5,42,43
 530 252 530 252 586.5 231.5 c 132,-1,44
 643 211 643 211 681 170 c 132,-1,45
 719 129 719 129 719 54 c 260,46,47
 719 -22 719 -22 686 -73.5 c 132,-1,48
 653 -125 653 -125 599 -155.5 c 132,-1,49
 545 -186 545 -186 481 -200.5 c 132,-1,50
 417 -215 417 -215 356 -215 c 4,0,1
EndSplineSet
Validated: 1
EndChar

StartChar: uni2084
Encoding: 8324 8324 54
Width: 819
Flags: W
LayerCount: 2
Fore
SplineSet
256 -200 m 5,0,-1
 256 -131 l 5,1,-1
 313 -131 l 6,2,3
 348 -131 348 -131 372.5 -117.5 c 132,-1,4
 397 -104 397 -104 397 -53 c 6,5,-1
 397 60 l 5,6,-1
 33 60 l 5,7,-1
 33 121 l 5,8,-1
 416 684 l 5,9,-1
 580 684 l 5,10,-1
 580 148 l 5,11,-1
 776 148 l 5,12,-1
 776 60 l 5,13,-1
 580 60 l 5,14,-1
 580 -53 l 6,15,16
 580 -104 580 -104 606.5 -117.5 c 132,-1,17
 633 -131 633 -131 666 -131 c 6,18,-1
 707 -131 l 5,19,-1
 707 -200 l 5,20,-1
 256 -200 l 5,0,-1
154 148 m 5,21,-1
 397 148 l 5,22,-1
 397 379 l 6,23,24
 397 412 397 412 400 452 c 132,-1,25
 403 492 403 492 408 531 c 5,26,27
 400 515 400 515 390.5 497.5 c 132,-1,28
 381 480 381 480 377 471 c 6,29,-1
 154 148 l 5,21,-1
EndSplineSet
Validated: 1
EndChar

StartChar: uni2085
Encoding: 8325 8325 55
Width: 819
Flags: W
LayerCount: 2
Fore
SplineSet
377 -215 m 4,0,1
 266 -215 266 -215 202.5 -191.5 c 132,-1,2
 139 -168 139 -168 113.5 -132 c 132,-1,3
 88 -96 88 -96 88 -57 c 260,4,5
 88 -18 88 -18 115.5 13.5 c 132,-1,6
 143 45 143 45 209 45 c 5,7,8
 209 -25 209 -25 256 -75 c 132,-1,9
 303 -125 303 -125 381 -125 c 260,10,11
 459 -125 459 -125 503 -80 c 132,-1,12
 547 -35 547 -35 547 74 c 4,13,14
 547 158 547 158 499 201 c 132,-1,15
 451 244 451 244 360 244 c 4,16,17
 297 244 297 244 254 231.5 c 132,-1,18
 211 219 211 219 182 207 c 5,19,-1
 123 221 l 5,20,-1
 160 674 l 5,21,-1
 668 674 l 5,22,-1
 674 457 l 5,23,-1
 604 457 l 5,24,-1
 596 494 l 6,25,26
 590 521 590 521 577.5 533 c 132,-1,27
 565 545 565 545 518 545 c 6,28,-1
 238 545 l 5,29,-1
 215 299 l 5,30,31
 242 309 242 309 288 318.5 c 132,-1,32
 334 328 334 328 397 328 c 4,33,34
 503 328 503 328 578 299.5 c 132,-1,35
 653 271 653 271 693 213.5 c 132,-1,36
 733 156 733 156 733 68 c 4,37,38
 733 -59 733 -59 642 -137 c 132,-1,39
 551 -215 551 -215 377 -215 c 4,0,1
EndSplineSet
Validated: 1
EndChar

StartChar: uni2086
Encoding: 8326 8326 56
Width: 819
Flags: W
LayerCount: 2
Fore
SplineSet
428 -215 m 4,0,1
 336 -215 336 -215 260 -169 c 132,-1,2
 184 -123 184 -123 140 -21.5 c 132,-1,3
 96 80 96 80 96 244 c 4,4,5
 96 363 96 363 136 465.5 c 132,-1,6
 176 568 176 568 258 631.5 c 132,-1,7
 340 695 340 695 465 695 c 4,8,9
 604 695 604 695 656.5 649.5 c 132,-1,10
 709 604 709 604 709 553 c 4,11,12
 709 514 709 514 670 482.5 c 132,-1,13
 631 451 631 451 559 451 c 5,14,15
 559 510 559 510 537.5 559.5 c 132,-1,16
 516 609 516 609 457 609 c 4,17,18
 381 609 381 609 336 543 c 132,-1,19
 291 477 291 477 281 307 c 5,20,21
 312 323 312 323 354.5 335.5 c 132,-1,22
 397 348 397 348 446 348 c 4,23,24
 534 348 534 348 599 316.5 c 132,-1,25
 664 285 664 285 700.5 226.5 c 132,-1,26
 737 168 737 168 737 86 c 4,27,28
 737 -2 737 -2 701.5 -69.5 c 132,-1,29
 666 -137 666 -137 596 -176 c 132,-1,30
 526 -215 526 -215 428 -215 c 4,0,1
432 -129 m 4,31,32
 491 -129 491 -129 526 -77.5 c 132,-1,33
 561 -26 561 -26 561 74 c 4,34,35
 561 170 561 170 523 218.5 c 132,-1,36
 485 267 485 267 420 267 c 4,37,38
 381 267 381 267 340 250.5 c 132,-1,39
 299 234 299 234 276 211 c 5,40,41
 280 86 280 86 299.5 11.5 c 132,-1,42
 319 -63 319 -63 353 -96 c 132,-1,43
 387 -129 387 -129 432 -129 c 4,31,32
EndSplineSet
Validated: 1
EndChar

StartChar: uni2087
Encoding: 8327 8327 57
Width: 819
Flags: W
LayerCount: 2
Fore
SplineSet
264 -200 m 5,0,-1
 602 545 l 5,1,-1
 252 545 l 6,2,3
 219 545 219 545 203.5 530.5 c 132,-1,4
 188 516 188 516 184 486 c 6,5,-1
 176 420 l 5,6,-1
 102 420 l 5,7,-1
 109 674 l 5,8,-1
 721 674 l 5,9,-1
 721 576 l 5,10,-1
 397 -200 l 5,11,-1
 264 -200 l 5,0,-1
EndSplineSet
Validated: 1
EndChar

StartChar: uni2088
Encoding: 8328 8328 58
Width: 819
Flags: W
LayerCount: 2
Fore
SplineSet
406 -215 m 4,0,1
 244 -215 244 -215 163 -145 c 132,-1,2
 82 -75 82 -75 82 25 c 4,3,4
 82 109 82 109 140.5 155 c 132,-1,5
 199 201 199 201 287 234 c 5,6,7
 217 269 217 269 163 327 c 132,-1,8
 109 385 109 385 109 473 c 4,9,10
 109 526 109 526 139.5 577.5 c 132,-1,11
 170 629 170 629 238.5 662 c 132,-1,12
 307 695 307 695 420 695 c 4,13,14
 553 695 553 695 630 639.5 c 132,-1,15
 707 584 707 584 707 488 c 4,16,17
 707 412 707 412 654.5 363 c 132,-1,18
 602 314 602 314 530 283 c 5,19,20
 630 238 630 238 686.5 183.5 c 132,-1,21
 743 129 743 129 743 33 c 4,22,23
 743 -71 743 -71 659.5 -143 c 132,-1,24
 576 -215 576 -215 406 -215 c 4,0,1
420 -135 m 4,25,26
 490 -135 490 -135 530.5 -98 c 132,-1,27
 571 -61 571 -61 571 2 c 4,28,29
 571 45 571 45 548.5 79 c 132,-1,30
 526 113 526 113 481 141.5 c 132,-1,31
 436 170 436 170 369 195 c 5,32,33
 324 168 324 168 292 122 c 132,-1,34
 260 76 260 76 260 17 c 4,35,36
 260 -44 260 -44 301 -89.5 c 132,-1,37
 342 -135 342 -135 420 -135 c 4,25,26
446 324 m 5,38,39
 489 347 489 347 515 385.5 c 132,-1,40
 541 424 541 424 541 484 c 4,41,42
 541 533 541 533 509 574 c 132,-1,43
 477 615 477 615 412 615 c 4,44,45
 351 615 351 615 319 580 c 132,-1,46
 287 545 287 545 287 494 c 4,47,48
 287 426 287 426 337 386.5 c 132,-1,49
 387 347 387 347 446 324 c 5,38,39
EndSplineSet
Validated: 1
EndChar

StartChar: uni2089
Encoding: 8329 8329 59
Width: 819
Flags: W
LayerCount: 2
Fore
SplineSet
330 -215 m 4,0,1
 207 -215 207 -215 158 -170 c 132,-1,2
 109 -125 109 -125 109 -73 c 4,3,4
 109 -42 109 -42 128 -17 c 132,-1,5
 147 8 147 8 182 8 c 5,6,7
 182 -29 182 -29 198.5 -60.5 c 132,-1,8
 215 -92 215 -92 248 -110.5 c 132,-1,9
 281 -129 281 -129 330 -129 c 4,10,11
 428 -129 428 -129 477 -56 c 132,-1,12
 526 17 526 17 537 172 c 5,13,14
 506 156 506 156 463 143.5 c 132,-1,15
 420 131 420 131 371 131 c 4,16,17
 275 131 275 131 210 164 c 132,-1,18
 145 197 145 197 112.5 256.5 c 132,-1,19
 80 316 80 316 80 393 c 4,20,21
 80 481 80 481 116 549 c 132,-1,22
 152 617 152 617 221.5 656 c 132,-1,23
 291 695 291 695 389 695 c 4,24,25
 483 695 483 695 558 648.5 c 132,-1,26
 633 602 633 602 677 501 c 132,-1,27
 721 400 721 400 721 236 c 4,28,29
 721 119 721 119 680 15.5 c 132,-1,30
 639 -88 639 -88 553 -151.5 c 132,-1,31
 467 -215 467 -215 330 -215 c 4,0,1
397 213 m 4,32,33
 436 213 436 213 477 229.5 c 132,-1,34
 518 246 518 246 541 269 c 5,35,36
 535 457 535 457 494 533 c 132,-1,37
 453 609 453 609 385 609 c 4,38,39
 328 609 328 609 292 558.5 c 132,-1,40
 256 508 256 508 256 406 c 260,41,42
 256 304 256 304 291.5 258.5 c 132,-1,43
 327 213 327 213 397 213 c 4,32,33
EndSplineSet
Validated: 1
EndChar

StartChar: uni272E
Encoding: 10030 10030 61
Width: 1848
VWidth: 0
Flags: W
LayerCount: 2
Fore
SplineSet
381 6 m 1,0,-1
 537 648 l 1,1,-1
 105 1019 l 1,2,-1
 681 1060 l 1,3,-1
 924 1632 l 1,4,-1
 1167 1060 l 1,5,-1
 1743 1019 l 1,6,-1
 1315 648 l 1,7,-1
 1467 6 l 1,8,-1
 924 393 l 1,9,-1
 381 6 l 1,0,-1
566 265 m 1,10,-1
 924 549 l 1,11,-1
 1282 265 l 1,12,-1
 1179 698 l 1,13,-1
 1500 936 l 1,14,-1
 1080 949 l 1,15,-1
 924 1381 l 1,16,-1
 768 949 l 1,17,-1
 348 936 l 1,18,-1
 673 698 l 1,19,-1
 566 265 l 1,10,-1
689 463 m 1,20,-1
 780 735 l 1,21,-1
 539 879 l 1,22,-1
 833 879 l 1,23,-1
 924 1159 l 1,24,-1
 1015 879 l 1,25,-1
 1311 879 l 1,26,-1
 1068 735 l 1,27,-1
 1159 463 l 1,28,-1
 924 665 l 1,29,-1
 689 463 l 1,20,-1
EndSplineSet
Validated: 1
EndChar

StartChar: uni273C
Encoding: 10044 10044 62
Width: 1543
VWidth: 0
Flags: W
LayerCount: 2
Fore
SplineSet
774 -91 m 0,0,1
 706 -91 706 -91 670 -56 c 128,-1,2
 634 -21 634 -21 634 39 c 2,3,-1
 634 45 l 2,4,5
 636 88 636 88 649 146 c 128,-1,6
 662 204 662 204 681 261.5 c 128,-1,7
 700 319 700 319 712 358 c 2,8,-1
 720 395 l 2,9,10
 720 411 720 411 702 418 c 2,11,-1
 674 428 l 2,12,13
 640 438 640 438 618 459 c 0,14,15
 594 482 594 482 590 482 c 0,16,17
 578 482 578 482 552 449 c 2,18,-1
 510 405 l 1,19,-1
 394 286 l 2,20,21
 355 247 355 247 317.5 224.5 c 128,-1,22
 280 202 280 202 242 202 c 0,23,24
 191 202 191 202 148.5 252.5 c 128,-1,25
 106 303 106 303 106 360 c 0,26,27
 106 407 106 407 152 447 c 0,28,29
 192 482 192 482 332 517 c 0,30,31
 402 533 402 533 444 543.5 c 128,-1,32
 486 554 486 554 502 558 c 0,33,34
 532 568 532 568 532 584 c 2,35,-1
 528 613 l 1,36,-1
 526 650 l 2,37,38
 526 669 526 669 532 683 c 0,39,40
 534 691 534 691 535 698.5 c 128,-1,41
 536 706 536 706 536 714 c 0,42,43
 536 728 536 728 528 731 c 0,44,45
 522 735 522 735 513 739 c 128,-1,46
 504 743 504 743 490 745 c 2,47,-1
 262 803 l 2,48,49
 188 822 188 822 146 857.5 c 128,-1,50
 104 893 104 893 104 938 c 0,51,52
 104 969 104 969 123 1007 c 128,-1,53
 142 1045 142 1045 174 1072 c 128,-1,54
 206 1099 206 1099 240 1099 c 0,55,56
 276 1099 276 1099 326 1068 c 0,57,58
 372 1037 372 1037 456 951 c 2,59,-1
 552 852 l 2,60,61
 580 821 580 821 590 821 c 256,62,63
 600 821 600 821 624 844 c 0,64,65
 644 865 644 865 682 877 c 0,66,67
 720 889 720 889 720 906 c 2,68,-1
 712 943 l 2,69,70
 702 972 702 972 684 1029.5 c 128,-1,71
 666 1087 666 1087 651 1149.5 c 128,-1,72
 636 1212 636 1212 634 1255 c 2,73,-1
 634 1262 l 2,74,75
 634 1322 634 1322 670 1356.5 c 128,-1,76
 706 1391 706 1391 774 1391 c 0,77,78
 910 1391 910 1391 910 1262 c 2,79,-1
 910 1255 l 2,80,81
 908 1222 908 1222 899 1177 c 128,-1,82
 890 1132 890 1132 872 1074 c 2,83,-1
 830 943 l 1,84,-1
 822 906 l 2,85,86
 822 887 822 887 862 875 c 0,87,88
 883 869 883 869 897.5 861.5 c 128,-1,89
 912 854 912 854 922 842 c 0,90,91
 940 821 940 821 954 821 c 256,92,93
 968 821 968 821 996 852 c 2,94,-1
 1034 895 l 2,95,96
 1090 955 1090 955 1131 996 c 128,-1,97
 1172 1037 1172 1037 1202 1058 c 0,98,99
 1262 1099 1262 1099 1302 1099 c 0,100,101
 1339 1099 1339 1099 1369.5 1072 c 128,-1,102
 1400 1045 1400 1045 1419 1008 c 128,-1,103
 1438 971 1438 971 1438 938 c 0,104,105
 1438 893 1438 893 1396 858 c 128,-1,106
 1354 823 1354 823 1280 803 c 2,107,-1
 1190 778 l 2,108,109
 1116 757 1116 757 1073 748 c 128,-1,110
 1030 739 1030 739 1022 735 c 0,111,112
 1006 725 1006 725 1006 714 c 0,113,114
 1006 698 1006 698 1012 685 c 0,115,116
 1016 669 1016 669 1016 650 c 256,117,118
 1016 631 1016 631 1012 615 c 0,119,120
 1010 609 1010 609 1009 602 c 128,-1,121
 1008 595 1008 595 1008 584 c 0,122,123
 1008 565 1008 565 1054 556 c 2,124,-1
 1110 541 l 2,125,126
 1114 539 1114 539 1157 530 c 128,-1,127
 1200 521 1200 521 1280 498 c 0,128,129
 1436 455 1436 455 1436 360 c 0,130,131
 1436 302 1436 302 1396 252 c 128,-1,132
 1356 202 1356 202 1302 202 c 0,133,134
 1266 202 1266 202 1218 233 c 0,135,136
 1195 249 1195 249 1161.5 278 c 128,-1,137
 1128 307 1128 307 1086 350 c 2,138,-1
 992 449 l 2,139,140
 964 482 964 482 952 482 c 0,141,142
 944 482 944 482 922 459 c 0,143,144
 910 447 910 447 895 438.5 c 128,-1,145
 880 430 880 430 860 426 c 0,146,147
 822 414 822 414 822 395 c 2,148,-1
 830 358 l 2,149,150
 840 329 840 329 858 270.5 c 128,-1,151
 876 212 876 212 892 150 c 128,-1,152
 908 88 908 88 910 45 c 2,153,-1
 910 39 l 2,154,155
 910 -91 910 -91 774 -91 c 0,0,1
774 498 m 256,156,157
 838 498 838 498 882 541 c 128,-1,158
 926 584 926 584 926 650 c 0,159,160
 926 714 926 714 882 758.5 c 128,-1,161
 838 803 838 803 774 803 c 256,162,163
 710 803 710 803 666 758.5 c 128,-1,164
 622 714 622 714 622 650 c 256,165,166
 622 586 622 586 666 542 c 128,-1,167
 710 498 710 498 774 498 c 256,156,157
EndSplineSet
Validated: 1025
EndChar

StartChar: uni25D1
Encoding: 9681 9681 63
Width: 1724
VWidth: 3479
Flags: W
LayerCount: 2
Fore
SplineSet
862 -174 m 0,0,1
 709 -174 709 -174 575.5 -117 c 128,-1,2
 442 -60 442 -60 340 42 c 128,-1,3
 238 144 238 144 181 277.5 c 128,-1,4
 124 411 124 411 124 564 c 0,5,6
 124 719 124 719 181 852 c 128,-1,7
 238 985 238 985 340 1086.5 c 128,-1,8
 442 1188 442 1188 576 1245 c 128,-1,9
 710 1302 710 1302 862 1302 c 0,10,11
 1017 1302 1017 1302 1150 1245 c 128,-1,12
 1283 1188 1283 1188 1385 1086.5 c 128,-1,13
 1487 985 1487 985 1543.5 852 c 128,-1,14
 1600 719 1600 719 1600 564 c 0,15,16
 1600 411 1600 411 1543.5 277.5 c 128,-1,17
 1487 144 1487 144 1385 42 c 128,-1,18
 1283 -60 1283 -60 1150 -117 c 128,-1,19
 1017 -174 1017 -174 862 -174 c 0,0,1
862 -96 m 1,20,-1
 862 1224 l 1,21,22
 724 1224 724 1224 605 1173 c 128,-1,23
 486 1122 486 1122 395.5 1031.5 c 128,-1,24
 305 941 305 941 253.5 821.5 c 128,-1,25
 202 702 202 702 202 564 c 256,26,27
 202 426 202 426 253.5 307 c 128,-1,28
 305 188 305 188 395.5 97.5 c 128,-1,29
 486 7 486 7 605 -44.5 c 128,-1,30
 724 -96 724 -96 862 -96 c 1,20,-1
EndSplineSet
Validated: 1
EndChar
